<!DOCTYPE svg PUBLIC "-//W3C//DTD SVG 1.1//EN" "http://www.w3.org/Graphics/SVG/1.1/DTD/svg11.dtd">
<!-- Uploaded to: SVG Repo, www.svgrepo.com, Transformed by: SVG Repo Mixer Tools -->
<svg height="800px" width="800px" version="1.1" id="Layer_1" xmlns="http://www.w3.org/2000/svg" xmlns:xlink="http://www.w3.org/1999/xlink" viewBox="0 0 511.998 511.998" xml:space="preserve" fill="#ffffff" stroke="#ffffff">
<g id="SVGRepo_bgCarrier" stroke-width="0"/>
<g id="SVGRepo_tracerCarrier" stroke-linecap="round" stroke-linejoin="round"/>
<g id="SVGRepo_iconCarrier"> <circle cx="255.999" cy="255.999" r="255.999"/> <circle style="fill:#000000;" cx="176.324" cy="300.056" r="34.864"/> <path style="fill:#000000;" d="M236.463,412.199v-30.864c0-32.488-35.448-33.08-35.448-33.08h-49.352c0,0-35.448,0.4-35.448,33.08 v30.864H236.463z"/> <circle style="fill:#000000;" cx="335.644" cy="300.056" r="34.864"/> <path style="fill:#000000;" d="M395.783,412.199v-30.864c0-32.488-35.448-33.08-35.448-33.08h-49.352c0,0-35.448,0.4-35.448,33.08 v30.864H395.783z"/> <circle style="fill:#000000;" cx="255.989" cy="134.648" r="34.864"/> <path style="fill:#000000;" d="M316.119,246.792v-30.864c0-32.488-35.448-33.08-35.448-33.08h-49.352c0,0-35.448,0.4-35.448,33.08 v30.864H316.119z"/> </g>
</svg>